<svg width="1798" height="600" viewBox="0 0 1798 600" fill="none" xmlns="http://www.w3.org/2000/svg">
<circle cx="300" cy="300" r="300" fill="#0B36A8"/>
<path d="M170.189 417.504C168.55 417.504 166.093 417.402 162.816 417.197C159.744 416.992 157.389 416.89 155.75 416.89C152.474 416.89 150.835 415.149 150.835 411.667C150.835 408.186 152.474 406.445 155.75 406.445C157.184 406.445 159.437 406.547 162.509 406.752C165.581 406.957 167.834 407.059 169.267 407.059C187.085 407.059 203.776 400.301 219.341 386.784C209.715 376.544 204.902 364.256 204.902 349.92C204.902 337.222 209.101 326.368 217.498 317.357C225.69 308.55 236.442 304.147 249.754 304.147C256.102 304.147 261.837 305.376 266.957 307.834C270.234 298.003 273.51 288.173 276.787 278.342C280.064 268.512 283.341 258.579 286.618 248.544C295.014 224.378 303.923 206.048 313.344 193.555L295.834 192.634C252.621 192.634 223.642 203.078 208.896 223.968C204.595 230.317 202.445 236.768 202.445 243.322C202.445 249.67 204.39 254.893 208.282 258.989C212.378 262.88 217.6 264.826 223.949 264.826C225.997 264.826 228.762 264.109 232.243 262.675C235.725 261.242 237.978 260.525 239.002 260.525C242.483 260.525 244.224 262.368 244.224 266.054C244.224 268.307 241.254 270.56 235.315 272.813C229.99 274.451 225.997 275.27 223.334 275.27C214.118 275.27 206.541 272.301 200.602 266.362C194.867 260.218 192 252.64 192 243.629C192 235.437 194.662 227.245 199.987 219.053C216.371 194.682 249.139 182.496 298.291 182.496C303.411 182.496 307.917 182.598 311.808 182.803C315.699 183.008 318.976 183.315 321.638 183.725C329.216 176.147 335.974 172.358 341.914 172.358C345.19 172.358 346.829 174.202 346.829 177.888C346.829 180.346 343.654 182.906 337.306 185.568C367.002 190.483 391.168 201.133 409.805 217.517C430.694 236.154 441.139 260.115 441.139 289.402C441.139 327.699 425.062 358.214 392.909 380.947C364.442 401.222 330.342 411.36 290.611 411.36C262.554 411.36 241.254 405.523 226.714 393.85C209.101 409.619 190.259 417.504 170.189 417.504ZM290.611 400.915C327.68 400.915 359.424 391.699 385.843 373.267C415.539 352.787 430.387 324.832 430.387 289.402C430.387 261.139 419.738 238.509 398.438 221.51C380.416 207.174 356.147 198.163 325.632 194.477C315.392 206.765 305.766 225.811 296.755 251.616C293.478 261.856 290.099 272.198 286.618 282.643C283.136 292.883 279.654 303.123 276.173 313.363C285.594 320.736 290.304 330.157 290.304 341.626C290.304 356.986 286.413 364.666 278.63 364.666C275.558 364.666 274.022 363.027 274.022 359.75C274.022 358.931 274.944 356.576 276.787 352.685C278.835 348.794 279.859 345.312 279.859 342.24C279.859 335.072 277.197 328.826 271.872 323.501C260.608 350.534 248.013 371.424 234.086 386.17C246.784 396 265.626 400.915 290.611 400.915ZM226.714 379.104C240.026 364.563 252.314 343.981 263.578 317.357C259.277 315.514 254.669 314.592 249.754 314.592C239.309 314.592 230.912 317.971 224.563 324.73C218.419 331.283 215.347 339.782 215.347 350.227C215.347 360.467 219.136 370.093 226.714 379.104Z" fill="white"/>
<path d="M834.317 193.382C857.664 193.382 877.837 197.785 894.835 206.591C912.038 215.193 925.146 227.583 934.157 243.762C943.373 259.942 947.981 278.988 947.981 300.902C947.981 322.815 943.373 341.862 934.157 358.041C925.146 374.015 912.038 386.303 894.835 394.905C877.837 403.302 857.664 407.5 834.317 407.5H767.654V193.382H834.317ZM834.317 384.46C861.965 384.46 883.059 377.19 897.6 362.649C912.141 347.903 919.411 327.321 919.411 300.902C919.411 274.278 912.038 253.49 897.293 238.54C882.752 223.59 861.76 216.114 834.317 216.114H795.61V384.46H834.317ZM974.41 322.713C974.41 305.51 977.891 290.457 984.854 277.554C991.818 264.447 1001.34 254.31 1013.42 247.142C1025.71 239.974 1039.33 236.39 1054.28 236.39C1069.03 236.39 1081.83 239.564 1092.68 245.913C1103.54 252.262 1111.63 260.249 1116.95 269.874V239.154H1145.21V407.5H1116.95V376.166C1111.42 385.996 1103.13 394.188 1092.07 400.742C1081.21 407.09 1068.52 410.265 1053.97 410.265C1039.02 410.265 1025.51 406.578 1013.42 399.206C1001.34 391.833 991.818 381.49 984.854 368.178C977.891 354.866 974.41 339.711 974.41 322.713ZM1116.95 323.02C1116.95 310.322 1114.39 299.263 1109.27 289.842C1104.15 280.422 1097.19 273.254 1088.38 268.338C1079.78 263.218 1070.26 260.658 1059.81 260.658C1049.37 260.658 1039.84 263.116 1031.24 268.031C1022.64 272.946 1015.78 280.114 1010.66 289.535C1005.54 298.956 1002.98 310.015 1002.98 322.713C1002.98 335.615 1005.54 346.879 1010.66 356.505C1015.78 365.926 1022.64 373.196 1031.24 378.316C1039.84 383.231 1049.37 385.689 1059.81 385.689C1070.26 385.689 1079.78 383.231 1088.38 378.316C1097.19 373.196 1104.15 365.926 1109.27 356.505C1114.39 346.879 1116.95 335.718 1116.95 323.02ZM1274.48 236.082C1294.96 236.082 1311.55 242.329 1324.24 254.822C1336.94 267.11 1343.29 284.927 1343.29 308.274V407.5H1315.64V312.268C1315.64 295.474 1311.44 282.674 1303.05 273.868C1294.65 264.857 1283.18 260.351 1268.64 260.351C1253.89 260.351 1242.12 264.959 1233.31 274.175C1224.71 283.391 1220.41 296.806 1220.41 314.418V407.5H1192.45V239.154H1220.41V263.116C1225.94 254.514 1233.41 247.858 1242.84 243.148C1252.46 238.438 1263.01 236.082 1274.48 236.082ZM1403.39 211.814C1398.07 211.814 1393.56 209.97 1389.88 206.284C1386.19 202.598 1384.35 198.092 1384.35 192.767C1384.35 187.442 1386.19 182.937 1389.88 179.25C1393.56 175.564 1398.07 173.721 1403.39 173.721C1408.51 173.721 1412.81 175.564 1416.3 179.25C1419.98 182.937 1421.82 187.442 1421.82 192.767C1421.82 198.092 1419.98 202.598 1416.3 206.284C1412.81 209.97 1408.51 211.814 1403.39 211.814ZM1416.91 239.154V407.5H1388.95V239.154H1416.91ZM1524.15 410.265C1511.25 410.265 1499.68 408.114 1489.44 403.814C1479.2 399.308 1471.11 393.164 1465.17 385.382C1459.23 377.394 1455.95 368.281 1455.34 358.041H1484.22C1485.03 366.438 1488.93 373.298 1495.89 378.623C1503.06 383.948 1512.38 386.61 1523.84 386.61C1534.49 386.61 1542.89 384.255 1549.03 379.545C1555.18 374.834 1558.25 368.895 1558.25 361.727C1558.25 354.354 1554.97 348.927 1548.42 345.446C1541.87 341.759 1531.73 338.175 1518.01 334.694C1505.51 331.417 1495.27 328.14 1487.29 324.863C1479.5 321.382 1472.75 316.364 1467.01 309.81C1461.48 303.052 1458.72 294.246 1458.72 283.391C1458.72 274.79 1461.28 266.905 1466.4 259.737C1471.52 252.569 1478.79 246.937 1488.21 242.841C1497.63 238.54 1508.38 236.39 1520.46 236.39C1539.1 236.39 1554.15 241.1 1565.62 250.521C1577.09 259.942 1583.24 272.844 1584.06 289.228H1556.1C1555.49 280.422 1551.9 273.356 1545.35 268.031C1539 262.706 1530.4 260.044 1519.54 260.044C1509.51 260.044 1501.52 262.194 1495.58 266.495C1489.64 270.796 1486.67 276.428 1486.67 283.391C1486.67 288.921 1488.41 293.529 1491.9 297.215C1495.58 300.697 1500.09 303.564 1505.41 305.817C1510.94 307.865 1518.52 310.22 1528.14 312.882C1540.23 316.159 1550.06 319.436 1557.64 322.713C1565.21 325.785 1571.66 330.495 1576.99 336.844C1582.52 343.193 1585.39 351.487 1585.59 361.727C1585.59 370.943 1583.03 379.238 1577.91 386.61C1572.79 393.983 1565.52 399.82 1556.1 404.121C1546.88 408.217 1536.23 410.265 1524.15 410.265ZM1708.61 236.082C1721.31 236.082 1732.78 238.847 1743.02 244.377C1753.26 249.702 1761.25 257.791 1766.98 268.646C1772.92 279.5 1775.89 292.71 1775.89 308.274V407.5H1748.24V312.268C1748.24 295.474 1744.04 282.674 1735.65 273.868C1727.25 264.857 1715.78 260.351 1701.24 260.351C1686.49 260.351 1674.72 264.959 1665.91 274.175C1657.31 283.391 1653.01 296.806 1653.01 314.418V407.5H1625.05V180.172H1653.01V263.116C1658.54 254.514 1666.12 247.858 1675.74 243.148C1685.57 238.438 1696.53 236.082 1708.61 236.082Z" fill="white"/>
</svg>
